<svg width="42" height="30" viewBox="0 0 42 30" fill="none" xmlns="http://www.w3.org/2000/svg">
<path d="M40.9557 23.5209L38.685 7.56258C38.1017 3.45842 34.5811 0.416748 30.4355 0.416748H11.5615C7.41593 0.416748 3.8953 3.45842 3.312 7.56258L1.04129 23.5209C0.582983 26.7293 3.06201 29.5834 6.29099 29.5834C7.70758 29.5834 9.04084 29.0209 10.0408 28.0209L14.7488 23.3334H27.2481L31.9354 28.0209C32.9353 29.0209 34.2894 29.5834 35.6852 29.5834C38.935 29.5834 41.414 26.7293 40.9557 23.5209ZM18.9153 12.9167H14.7488V17.0834H12.6656V12.9167H8.4992V10.8334H12.6656V6.66675H14.7488V10.8334H18.9153V12.9167ZM27.2481 10.8334C26.1024 10.8334 25.1649 9.89592 25.1649 8.75008C25.1649 7.60425 26.1024 6.66675 27.2481 6.66675C28.3939 6.66675 29.3314 7.60425 29.3314 8.75008C29.3314 9.89592 28.3939 10.8334 27.2481 10.8334ZM31.4146 17.0834C30.2688 17.0834 29.3314 16.1459 29.3314 15.0001C29.3314 13.8543 30.2688 12.9167 31.4146 12.9167C32.5603 12.9167 33.4978 13.8543 33.4978 15.0001C33.4978 16.1459 32.5603 17.0834 31.4146 17.0834Z" fill="#2A7AE4"/>
</svg>
